<?xml version="1.0" encoding="UTF-8"?>
<svg width="33px" height="40px" viewBox="0 0 33 40" version="1.1" xmlns="http://www.w3.org/2000/svg" xmlns:xlink="http://www.w3.org/1999/xlink">
    <title>Group</title>
    <g id="Línea-Ética" stroke="none" stroke-width="1" fill="none" fill-rule="evenodd">
        <g id="Línea-Ética-|-Reporte-paso4---Datos-de-reporte" transform="translate(-766, -442)" fill="#000000" fill-rule="nonzero">
            <g id="Group-2" transform="translate(522, 433)">
                <g id="Group" transform="translate(244.256, 9)">
                    <g id="Copiar" transform="translate(0, 28.684)" fill-opacity="0.950757007">
                        <path d="M6.108,6.672 C5.544,6.996 4.944,7.224 4.164,7.224 C2.544,7.224 1.536,6.072 1.536,4.416 C1.536,2.868 2.46,1.548 4.212,1.548 C4.98,1.548 5.64,1.74 6.252,2.064 L6.252,0.72 C5.76,0.504 5.04,0.336 4.176,0.336 C1.632,0.336 0,2.16 0,4.452 C0,6.768 1.404,8.436 3.996,8.436 C4.788,8.436 5.628,8.292 6.504,7.812 L6.108,6.672 Z" id="Path"></path>
                        <path d="M9.796,8.436 C11.488,8.436 12.64,7.164 12.64,5.46 C12.64,3.756 11.488,2.496 9.796,2.496 C8.104,2.496 6.964,3.756 6.964,5.46 C6.964,7.164 8.104,8.436 9.796,8.436 Z M9.796,7.284 C8.896,7.284 8.428,6.516 8.428,5.46 C8.428,4.416 8.896,3.648 9.796,3.648 C10.696,3.648 11.164,4.416 11.164,5.46 C11.164,6.516 10.696,7.284 9.796,7.284 Z" id="Shape"></path>
                        <path d="M14.108,11.16 L15.536,11.16 L15.536,8.304 C15.812,8.388 16.112,8.436 16.412,8.436 C18.188,8.436 19.364,7.2 19.364,5.46 C19.364,3.648 18.296,2.496 16.256,2.496 C15.476,2.496 14.732,2.64 14.108,2.856 L14.108,11.16 Z M15.536,7.104 L15.536,3.768 C15.752,3.708 15.956,3.672 16.208,3.672 C17.228,3.672 17.9,4.248 17.9,5.46 C17.9,6.552 17.36,7.248 16.304,7.248 C16.004,7.248 15.788,7.2 15.536,7.104 Z" id="Shape"></path>
                        <path d="M20.292,8.316 L21.732,8.316 L21.732,2.64 L20.292,2.64 L20.292,8.316 Z M21.012,1.716 C21.516,1.716 21.9,1.332 21.9,0.864 C21.9,0.372 21.516,0 21.012,0 C20.508,0 20.136,0.384 20.136,0.864 C20.136,1.344 20.508,1.716 21.012,1.716 Z" id="Shape"></path>
                        <path d="M26.368,8.316 L27.568,8.316 C27.484,8.016 27.46,7.524 27.46,6.864 L27.46,4.56 C27.46,3.192 26.704,2.496 25.18,2.496 C24.388,2.496 23.656,2.688 22.984,3.06 L23.452,3.984 C23.86,3.768 24.376,3.588 24.94,3.588 C25.6,3.588 26.032,3.876 26.032,4.536 L26.032,4.716 L25.06,4.752 C24.484,4.776 23.992,4.872 23.596,5.076 C23.008,5.376 22.636,5.856 22.636,6.624 C22.636,7.716 23.44,8.436 24.52,8.436 C25.228,8.436 25.744,8.148 26.152,7.776 L26.368,8.316 Z M26.032,5.676 L26.032,6.888 C25.84,7.044 25.456,7.308 24.928,7.308 C24.412,7.308 24.088,7.02 24.088,6.528 C24.088,6.24 24.196,6.012 24.436,5.88 C24.628,5.772 24.892,5.712 25.264,5.7 L26.032,5.676 Z" id="Shape"></path>
                        <path d="M28.604,8.316 L30.032,8.316 L30.032,4.308 C30.5,3.9 30.812,3.744 31.184,3.744 C31.352,3.744 31.58,3.78 31.832,3.936 L32.336,2.724 C32.108,2.568 31.796,2.496 31.532,2.496 C30.956,2.496 30.488,2.76 29.972,3.276 L29.816,2.64 L28.604,2.64 L28.604,8.316 Z" id="Path"></path>
                    </g>
                    <path d="M26.744,4 L23.744,4 L23.744,1 C23.744,0.447 23.297,0 22.744,0 L4.744,0 C4.191,0 3.744,0.447 3.744,1 L3.744,19 C3.744,19.553 4.191,20 4.744,20 L7.744,20 L7.744,23 C7.744,23.553 8.191,24 8.744,24 L26.744,24 C27.297,24 27.744,23.553 27.744,23 L27.744,5 C27.744,4.447 27.297,4 26.744,4 Z M7.744,5 L7.744,18 L5.744,18 L5.744,2 L21.744,2 L21.744,4 L8.744,4 C8.191,4 7.744,4.447 7.744,5 Z M25.744,22 L9.744,22 L9.744,6 L25.744,6 L25.744,22 Z" id="Shape"></path>
                </g>
            </g>
        </g>
    </g>
</svg>