<?xml version="1.0" encoding="UTF-8"?>
<svg width="43px" height="39px" viewBox="0 0 43 39" version="1.1" xmlns="http://www.w3.org/2000/svg" xmlns:xlink="http://www.w3.org/1999/xlink">
    <title>open-envelope</title>
    <g id="Línea-Ética" stroke="none" stroke-width="1" fill="none" fill-rule="evenodd">
        <g id="Línea-Ética-|-Consultar-reporte-RESULTADOS" transform="translate(-257, -544)">
            <g id="open-envelope" transform="translate(257.5, 544.5)">
                <path d="M37.3,12.8 L31,7.2 L31,2.1 C31,0.9 30.1,3.55271368e-15 28.9,3.55271368e-15 L9.1,3.55271368e-15 C7.9,3.55271368e-15 7,0.9 7,2.1 L7,7.2 L0.7,12.7 C0.3,13.1 0,13.7 0,14.2 L0,31.8 C0,34.1 1.8,35.9 4.1,35.9 L33.9,35.9 L33.9,35.9 C36.2,35.9 38,34.1 38,31.8 L38,14.3 C38,13.7 37.7,13.2 37.3,12.8 Z" id="Path" fill="#87C0E3" fill-rule="nonzero"></path>
                <path d="M10.5,18 L10.5,3.5 C10.5,2.4 11.4,1.5 12.5,1.5 L31.5,1.5 C32.6,1.5 33.5,2.4 33.5,3.5 L33.5,17.8" id="Path" stroke-opacity="0.8" stroke="#000000" stroke-width="3" stroke-linecap="round" stroke-linejoin="round"></path>
                <path d="M3.5,24.6 L3.5,15.4 C3.5,14.8 3.7,14.3 4.2,13.9 L10.5,8.3" id="Path" stroke-opacity="0.8" stroke="#000000" stroke-width="3" stroke-linecap="round" stroke-linejoin="round"></path>
                <path d="M29.1,36.5 L7.5,36.5 C5.3,36.5 3.5,34.7 3.5,32.5 L3.5,30.3 L3.5,29.5" id="Path" stroke-opacity="0.8" stroke="#000000" stroke-width="3" stroke-linecap="round" stroke-linejoin="round"></path>
                <path d="M33.5,8.3 L39.8,13.9 C40.2,14.3 40.5,14.8 40.5,15.4 L40.5,32.5 C40.5,34.7 38.7,36.5 36.5,36.5" id="Path" stroke-opacity="0.8" stroke="#000000" stroke-width="3" stroke-linecap="round" stroke-linejoin="round"></path>
                <path d="M36,17.6 L23.3,24 C22.5,24.4 21.5,24.4 20.6,24 L8.2,17.8" id="Path" stroke-opacity="0.8" stroke="#000000" stroke-width="3" stroke-linecap="round" stroke-linejoin="round"></path>
                <line x1="16.5" y1="8.5" x2="27.5" y2="8.5" id="Path" stroke-opacity="0.8" stroke="#000000" stroke-width="3" stroke-linecap="round" stroke-linejoin="round"></line>
                <line x1="16.5" y1="14.5" x2="27.5" y2="14.5" id="Path" stroke-opacity="0.8" stroke="#000000" stroke-width="3" stroke-linecap="round" stroke-linejoin="round"></line>
            </g>
        </g>
    </g>
</svg>